<svg width="1203" height="1203" viewBox="0 0 1203 1203" fill="none" xmlns="http://www.w3.org/2000/svg">
<path d="M529.358 319.699C570.954 377.276 577.536 443.57 544.057 467.77C510.579 491.971 449.719 464.913 408.123 407.336C366.526 349.759 359.945 283.466 393.423 259.266C426.901 235.065 487.761 262.122 529.358 319.699Z" fill="#CA808B"/>
<path d="M851.857 393.823C780.834 394.412 723.53 428.378 723.866 469.689C724.201 511 782.049 544.012 853.072 543.423C924.095 542.834 981.398 508.868 981.063 467.557C980.727 426.246 922.88 393.234 851.857 393.823Z" fill="#CA808B"/>
<path d="M439.168 528.521C482.477 579.679 493.473 641.577 463.726 666.773C433.98 691.969 374.756 670.923 331.446 619.765C288.136 568.607 277.141 506.709 306.887 481.513C336.634 456.316 395.858 477.363 439.168 528.521Z" fill="#CA808B"/>
<path d="M768.135 616.122C701.962 626.787 653.339 666.634 659.533 705.123C665.727 743.613 724.392 766.169 790.566 755.504C856.74 744.839 905.363 704.992 899.168 666.503C892.974 628.014 834.309 605.457 768.135 616.122Z" fill="#CA808B"/>
<path d="M387.123 753.502C423.041 795.93 432.16 847.264 407.49 868.161C382.82 889.057 333.703 871.602 297.784 829.175C261.866 786.747 252.747 735.413 277.417 714.516C302.087 693.62 351.204 711.075 387.123 753.502Z" fill="#CA808B"/>
<path d="M678.87 843.038C623.836 850.869 582.908 883.166 587.456 915.176C592.003 947.186 640.303 966.788 695.337 958.958C750.372 951.127 791.299 918.83 786.752 886.82C782.205 854.81 733.905 835.208 678.87 843.038Z" fill="#CA808B"/>
<path d="M802.042 110.098C804.032 105.226 809.595 102.889 814.465 104.877C819.334 106.867 821.671 112.43 819.681 117.302C746.1 297.41 660.958 502.712 593.309 685.192C559.487 776.425 530.089 861.812 508.721 935.384C487.299 1009.14 474.15 1070.35 472.434 1113.49C472.225 1118.75 467.793 1122.84 462.537 1122.64C457.28 1122.43 453.187 1118 453.395 1112.74C455.209 1067.16 468.928 1004.08 490.425 930.067C511.976 855.87 541.547 770.002 575.444 678.567C643.231 495.713 728.533 290.03 802.042 110.098Z" fill="#CA808B"/>
</svg>
