<svg width="267" height="141" viewBox="0 0 267 141" fill="none" xmlns="http://www.w3.org/2000/svg">
<path fill-rule="evenodd" clip-rule="evenodd" d="M67.4367 111.945C67.3371 112.041 66.3995 112.385 65.3553 112.706C63.59 113.249 63.4423 113.253 63.2774 112.723C62.4875 110.187 61.9929 109.927 60.2344 111.112C55.5049 114.304 49.3948 108.698 48.8212 100.647C48.6014 97.5371 49.0891 95.4715 50.4939 93.5425C51.6067 92.0163 53.7018 90.8179 55.2542 90.8179C55.8347 90.8179 56.3911 90.6063 56.4907 90.3502C56.5903 90.0907 56.0339 87.6871 55.2577 85.0104C54.4471 82.221 53.9697 80.012 54.1414 79.8413C54.5433 79.4418 58.2698 78.677 58.5342 78.9399C58.7335 79.1379 61.4743 89.0289 64.5207 100.548C65.3176 103.553 66.3376 107.305 66.791 108.889C67.2444 110.47 67.5363 111.846 67.4367 111.945ZM60.8869 105.646C60.4851 106.684 57.7821 107.213 56.5422 106.496C55.4706 105.875 54.5707 103.618 54.5707 101.559C54.5707 99.9031 54.7047 99.5105 55.5565 98.6604C56.6109 97.6156 58.2183 97.025 58.6819 97.5166C59.1319 97.9946 61.0758 105.158 60.8869 105.646Z" fill="#FFFBFB"/>
<path fill-rule="evenodd" clip-rule="evenodd" d="M78.5236 105.632C77.2425 106.564 73.7014 106.755 72.2589 105.977C70.4488 104.997 69.0956 103.447 68.0137 101.112C66.1384 97.0693 65.3725 91.2071 66.2861 87.9329C67.1001 85.0172 70.229 83.2589 73.2549 84.0168C77.6306 85.1128 81.0171 91.6442 81.0171 98.995C81.0171 102.317 80.2374 104.393 78.5236 105.632ZM75.7106 100.224C74.6871 101.238 73.5056 101.293 72.331 100.374C71.0155 99.3432 70.2565 97.0352 70.4351 94.5975C70.6206 92.0607 71.3212 91.1594 73.1175 91.1594C75.2847 91.1594 76.5521 93.3001 76.5521 96.9635C76.5521 99.0803 76.4456 99.49 75.7106 100.224Z" fill="#FFFBFB"/>
<path d="M87.9584 104.301C87.1135 104.427 86.2136 104.611 85.956 104.707C85.3378 104.946 85.324 104.898 84.1219 97.9878C83.5518 94.7033 82.3943 88.1788 81.5494 83.491C80.7045 78.8068 80.0657 74.918 80.1309 74.8531C80.3473 74.638 84.802 73.9825 84.9634 74.1429C85.1214 74.2966 86.4025 81.3674 88.9132 95.9358C89.8302 101.262 90.1222 103.686 89.8646 103.843C89.6585 103.969 88.7998 104.174 87.9584 104.301Z" fill="#FFFBFB"/>
<path fill-rule="evenodd" clip-rule="evenodd" d="M104.802 103.915C102.627 104.27 102.312 104.082 102.312 102.419C102.312 101.399 101.748 101.323 100.175 102.139C98.1625 103.184 94.8585 103.232 93.5155 102.235C91.7639 100.938 91.1903 99.8349 91.0392 97.4791C90.8606 94.6589 91.077 93.8463 92.4405 92.3065C93.9105 90.6404 96.5139 89.4591 98.7224 89.4557C100.704 89.4523 101.281 89.046 101.281 87.653C101.281 84.3207 97.9049 82.436 95.9884 84.6997C95.5007 85.2767 95.0989 85.8742 95.0989 86.0244C95.0989 86.2634 92.1074 87.4037 91.4754 87.4037C91.101 87.4037 91.6677 84.9796 92.3478 83.6652C94.8378 78.8545 101.147 78.6668 103.527 83.3306C104.307 84.867 104.523 86.0961 105.252 93.1601C105.293 93.5698 105.334 93.9658 105.375 94.3482L105.377 94.3654C106.131 101.695 106.292 103.256 105.664 103.69C105.493 103.808 105.263 103.843 104.97 103.888C104.916 103.897 104.86 103.905 104.802 103.915ZM100.955 99.1725C99.6669 99.8349 98.2072 99.8383 97.2627 99.1827C96.3422 98.5409 95.6828 96.6323 95.9781 95.4613C96.3456 94.0068 98.0045 92.8665 99.7493 92.8665C101.638 92.8665 101.968 93.3957 101.968 96.4206C101.968 98.5477 101.92 98.6774 100.955 99.1725Z" fill="#FFFBFB"/>
<path fill-rule="evenodd" clip-rule="evenodd" d="M44.0781 116.728C43.3328 116.933 42.4123 117.097 42.0345 117.09C39.0636 117.032 35.495 113.755 33.6953 109.422C32.2562 105.963 31.3907 101.665 31.7067 99.5685C32.3249 95.4681 37.1402 93.5391 40.877 95.8949C44.4834 98.1687 47.4955 103.734 48.2202 109.463C48.6598 112.952 46.9597 115.933 44.0781 116.728ZM43.5698 108.162C43.5972 111.016 41.2857 112.57 39.1872 111.109C37.9954 110.282 36.9788 107.954 36.7933 105.622C36.6353 103.689 36.6971 103.433 37.5077 102.624C38.6033 101.539 39.3624 101.515 40.8667 102.525C42.1719 103.399 43.5526 106.274 43.5698 108.162Z" fill="#FFFBFB"/>
<path d="M34.2586 122.72C34.1899 122.782 33.3175 123.236 32.3215 123.734L30.508 124.639L29.9894 123.69C29.7043 123.168 28.0042 119.764 26.2148 116.127C22.9828 109.562 22.9519 109.514 21.9731 109.709C20.898 109.924 20.3622 109.5 19.4349 107.718C18.9231 106.732 18.9369 106.667 19.823 105.939L20.74 105.185L19.2803 102.44C18.4766 100.931 17.8206 99.4934 17.8206 99.251C17.8206 98.7662 20.795 97.1923 21.214 97.4517C21.3583 97.5371 22.0624 98.9233 22.7836 100.531C23.5015 102.136 24.2845 103.451 24.5215 103.451C24.7551 103.451 25.5038 103.222 26.1839 102.938C26.8605 102.655 27.5714 102.426 27.7638 102.426C28.0591 102.426 30.1852 106.158 30.1852 106.677C30.1852 106.773 29.5669 107.165 28.8113 107.548C28.0557 107.93 27.4375 108.486 27.4375 108.783C27.4375 109.081 29.0002 112.31 30.9099 115.967C32.8195 119.62 34.3238 122.659 34.2586 122.72Z" fill="#FFFBFB"/>
<path d="M20.9633 131.024C19.7097 131.751 18.9197 131.935 16.6494 132.014C15.1211 132.065 13.39 131.959 12.8027 131.782C11.7998 131.471 11.7242 131.331 11.5147 129.351C11.3945 128.197 11.2949 126.752 11.2949 126.141V125.032L14.0186 124.909C16.7903 124.786 18.0851 124.24 18.9815 122.826C19.5173 121.986 18.8338 120.433 17.6901 119.89C16.859 119.49 16.2819 119.511 13.6476 120.02C6.82653 121.338 2.36156 119.497 0.479409 114.601C-0.307112 112.556 -0.101037 108.992 0.915601 107.012C1.84981 105.195 4.04108 103.249 5.72746 102.751C7.55809 102.204 12.497 102.443 13.1427 103.112C13.4759 103.454 13.6785 104.601 13.7541 106.609L13.8709 109.596L11.9818 109.61C9.88331 109.627 7.81912 110.245 6.80592 111.153C5.93353 111.938 5.96101 113.423 6.86774 114.239C7.48253 114.789 7.96681 114.864 10.0447 114.721C15.6603 114.338 18.9438 114.523 20.4206 115.298C23.0069 116.66 25.466 120.023 25.916 122.809C26.3865 125.742 24.4151 129.013 20.9633 131.024Z" fill="#FFFBFB"/>
<path fill-rule="evenodd" clip-rule="evenodd" d="M60.5469 61.7938C56.7311 63.2209 56.6315 63.2516 56.6315 63.0263C56.6315 62.661 64.9191 58.3795 70.6137 55.7984L73.1965 54.6307L72.6435 53.7874C71.8914 52.6471 71.9463 50.9195 72.774 49.6767C73.1484 49.1134 73.4575 48.3452 73.461 47.9696C73.4713 45.8289 76.2464 43.8179 78.6335 44.2174C79.6741 44.3915 79.9867 44.3335 79.9867 43.9648C79.9867 43.7019 80.4194 43.0736 80.9484 42.5718C81.7108 41.8479 82.2466 41.6533 83.49 41.6533C84.8569 41.6533 85.2073 41.8104 86.1002 42.821C86.667 43.4663 87.608 44.2345 88.185 44.5315C89.5211 45.2178 90.05 46.1976 89.8783 47.6658C89.7134 49.0588 89.7169 49.0588 93.5671 48.0994L96.4727 47.3721V35.2039L94.91 35.0981L93.3507 34.9956L102.157 21.8509C107 14.6231 111.169 8.59015 111.423 8.44675C111.674 8.30335 118.035 8.22483 125.557 8.27604L139.233 8.36481L139.33 13.131C139.381 15.7532 139.573 17.986 139.755 18.0987C139.934 18.2114 140.624 18.2387 141.291 18.1602L142.496 18.0202V11.4376C142.496 5.89975 142.414 4.82086 141.981 4.65698C141.596 4.51017 141.466 3.89561 141.466 2.22948V0H148.335V2.38995C148.335 3.75563 148.187 4.77989 147.992 4.77989C147.803 4.77989 147.648 5.54809 147.648 6.487V8.1941L155.462 8.20093C159.758 8.20093 163.451 8.31701 163.667 8.45699C164.004 8.67209 169.77 17.491 178.453 31.0693L180.96 34.9956L178.13 35.1663L175.297 35.3371L175.204 41.7421C175.19 42.5342 175.173 43.2307 175.156 43.8453L175.155 43.8593C175.094 46.209 175.064 47.3428 175.606 48.0379C176.112 48.6854 177.118 48.9492 179.066 49.4602C179.604 49.6013 180.214 49.7612 180.905 49.9533C183.989 50.8137 185.181 51.0219 185.298 50.7215C185.384 50.4927 185.411 48.9358 185.356 47.2595L185.257 44.214L183.969 44.3267C182.306 44.4701 180.579 43.8931 179.621 42.879C179.009 42.2338 178.882 41.7523 178.968 40.414L179.075 38.7513L187.86 38.4098L184.371 33.2885C182.454 30.4718 180.191 27.1805 179.346 25.9719L177.811 23.78L178.614 23.162C179.607 22.404 181.341 22.0455 182.708 22.3187C183.485 22.4723 184.082 22.2982 185.095 21.6324C187.537 20.0277 190.759 20.2121 193.005 22.0933C194.444 23.2951 195.066 24.6472 195.152 26.7742C195.217 28.3413 195.382 28.7408 196.34 29.6319C198.583 31.7146 199.435 35.3371 198.308 38.0138C197.003 41.1241 194.197 42.9985 190.838 43.0122L188.863 43.019V52.5071L192.555 53.9411C198.528 56.2661 210.858 62.5824 210.367 63.0707C210.309 63.1287 208.808 62.6166 207.032 61.9337C202.89 60.3393 197.202 58.7449 189.591 57.0412C166.202 51.8072 131.481 50.2537 101.968 53.1182C86.2823 54.641 71.2972 57.7786 60.5469 61.7938ZM100.594 39.1507C100.594 43.2409 100.728 46.4332 100.903 46.4332C101.075 46.4332 102.968 46.1362 105.111 45.7709C109.531 45.0232 119.261 44.0467 122.383 44.0399C122.55 44.0376 122.711 44.0384 122.864 44.0391C122.938 44.0395 123.01 44.0399 123.08 44.0399C124.293 44.0467 125.004 44.0501 125.423 43.7053C126.023 43.2073 126.02 41.9938 126.014 39.0437L126.014 39.0346C126.01 38.6659 126.01 38.2699 126.01 37.8431V32.0662L123.712 28.751C122.452 26.9279 119.653 22.824 117.499 19.6317C115.342 16.4394 113.453 13.7797 113.299 13.7217C113.141 13.6671 110.86 16.815 108.229 20.7208C105.595 24.6301 102.803 28.734 102.02 29.847L100.594 31.8648V39.1507ZM132.773 100.183C131.382 101.026 130.671 101.207 128.308 101.32C125.694 101.45 125.344 101.381 123.352 100.381C121.226 99.3125 119.141 97.2844 119.141 96.2841C119.141 95.5705 122.194 91.0945 122.538 91.3062C122.689 91.3983 123.616 92.0129 124.599 92.6718C126.687 94.0683 128.346 94.4746 129.493 93.8702C130.568 93.3103 130.808 92.9006 130.812 91.6373C130.819 90.2887 130.327 89.8756 126.354 87.9193C122.747 86.1405 121.15 84.8362 120.103 82.8184C119.203 81.084 118.921 77.96 119.488 75.9559C120.02 74.061 122.435 71.2784 124.427 70.2576C126.347 69.2777 129.417 69.2606 131.547 70.2234C133.357 71.0394 135.84 73.1392 136.153 74.1156C136.42 74.9658 133.336 79.9983 132.759 79.6535C132.543 79.5237 131.763 78.9877 131.028 78.4619C127.497 75.9388 123.695 76.9767 124.846 80.1554C125.059 80.746 126.24 81.6166 128.758 83.0301C132.948 85.3859 133.817 86.1336 135.156 88.5372C136.015 90.0771 136.142 90.6609 136.135 93.0372C136.128 96.6665 135.153 98.7389 132.773 100.183ZM245.795 140.331C244.991 140.696 243.713 140.997 242.958 141C241.46 141.007 239.094 139.996 238.129 138.938C237.538 138.289 237.572 138.19 239.163 135.875C240.066 134.564 240.931 133.41 241.086 133.315C241.237 133.219 241.938 133.53 242.638 134.001C245.115 135.674 247.313 134.875 249.648 131.454C251.534 128.695 251.417 128.169 248.962 128.313C246.568 128.456 245.372 127.995 244.483 126.589C243.408 124.895 243.738 122.188 245.417 118.941C246.64 116.578 254.134 106.131 254.763 105.916C254.914 105.864 255.693 106.4 256.494 107.111L257.95 108.401L254.457 113.3C250.899 118.292 249.322 121.112 249.315 122.485C249.312 123.43 250.366 124.526 251.572 124.827C253.444 125.295 254.491 124.318 259.094 117.814C261.491 114.424 263.61 111.552 263.799 111.436C264.28 111.139 267 113.167 267 113.819C267 114.437 256.253 129.641 252.379 134.499C249.618 137.968 248.148 139.269 245.795 140.331ZM224.617 118.063C223.813 119.634 223.587 119.709 221.883 118.971C220.99 118.586 220.788 118.34 220.983 117.876C221.784 115.981 221.687 115.83 219.469 115.574C216.828 115.27 214.684 114.202 213.647 112.669C212.977 111.679 212.871 111.177 213.015 109.726C213.321 106.667 214.921 104.345 217.449 103.297C219.153 102.59 220.928 102.645 223.209 103.485C226.3 104.618 226.523 104.632 227.124 103.724C227.914 102.522 228.158 100.859 227.701 99.7632C226.942 97.94 224.566 97.2776 223.199 98.5067C222.546 99.094 220.904 99.1623 219.568 98.657L218.634 98.3053L219.805 97.0932C223.113 93.6654 227.935 93.7678 230.356 97.3118C231.552 99.0632 231.301 102.256 229.649 106.353C227.622 111.368 225.407 116.527 224.617 118.063ZM160.878 103.024C160.71 103.485 158.721 103.601 158.065 103.188C157.845 103.048 157.612 102.396 157.55 101.74C157.447 100.637 157.358 100.555 156.406 100.661C151.227 101.228 149.317 100.753 147.978 98.5682C147.219 97.3322 147.054 93.918 147.669 92.2929C148.747 89.4454 151.979 87.8749 156.118 88.1856C158.34 88.3529 158.683 88.2982 158.986 87.7417C159.855 86.1268 158.948 83.0301 157.402 82.3302C156.094 81.7361 155.658 81.842 154.256 83.1018C152.896 84.3241 149.709 85.2016 149.709 84.3548C149.709 83.5627 151.055 81.3981 152.274 80.2339C153.487 79.0765 153.607 79.0389 156.228 79.0389C159.418 79.0389 160.428 79.5818 161.644 81.9478C162.245 83.1189 162.417 84.0271 162.417 86.0654C162.417 88.6226 161.187 102.18 160.878 103.024ZM188.001 105.847C187.599 106.493 184.288 106.206 182.509 105.369C180.424 104.393 179.524 103.461 178.498 101.228C175.822 95.3964 180.04 81.9307 184.92 80.7119C186.304 80.367 188.211 80.8962 189.227 81.9068C190.337 83.0131 190.92 84.8465 190.92 87.2569C190.927 90.7599 189.543 96.2807 188.66 96.2807C188.389 96.2807 186.754 95.9666 185.023 95.5842C183.292 95.2018 181.671 94.9662 181.42 95.0618C180.792 95.3008 180.833 97.9331 181.489 99.4934C182.245 101.293 183.746 102.081 186.421 102.085H188.616L188.41 103.799C188.3 104.744 188.114 105.666 188.001 105.847ZM146.274 44.0706C147.504 44.1764 149.472 44.2925 150.653 44.3267L152.8 44.3847L152.814 31.9228L156.444 27.3137C158.44 24.7769 160.38 22.2811 160.754 21.7656L161.435 20.8267H152.865L148.359 26.4294L143.853 32.0355L144.042 43.8726L146.274 44.0706ZM239.207 122.444C238.016 123.458 237.627 123.594 235.941 123.581C233.753 123.567 232.056 122.935 230.635 121.611C229.604 120.651 228.028 117.691 228.021 116.704C228.017 116.233 231.205 114.035 231.895 114.035C231.995 114.035 232.551 114.796 233.128 115.725C234.897 118.586 236.899 119.221 238.153 117.319C238.826 116.302 238.452 115.219 236.597 112.833C233.709 109.108 233.217 106.537 234.801 103.427C236.116 100.852 238.208 99.5822 241.199 99.5481C243.926 99.5173 245.651 100.542 246.956 102.976C248.591 106.028 248.556 106.329 246.389 107.705C245.345 108.37 244.356 108.913 244.194 108.913C244.033 108.913 243.724 108.49 243.507 107.971C242.961 106.663 241.199 104.861 240.227 104.618C239.159 104.352 238.036 104.98 237.782 105.984C237.552 106.892 238.149 108.196 239.894 110.614C241.519 112.86 242.099 114.403 242.099 116.462C242.099 118.685 241.035 120.89 239.207 122.444ZM210.463 110.235C209.649 112.631 209.443 112.7 206.912 111.453C203.412 109.729 201.856 107.285 201.812 103.451C201.736 96.8679 206.864 89.8073 211.727 89.7971C212.727 89.7937 215.996 90.7906 215.996 91.1013C215.996 91.2413 215.522 92.863 214.942 94.7067C213.967 97.8171 213.836 98.039 213.139 97.8102C211.373 97.2298 209.639 97.2776 208.581 97.9331C206.338 99.3296 205.284 103.771 206.754 105.632C207.575 106.667 209.12 107.548 210.12 107.548C211.174 107.548 211.229 107.974 210.463 110.235ZM169.097 98.756C168.912 101.576 168.791 102.075 168.311 102.023C167.998 101.989 166.995 101.904 166.085 101.832L164.426 101.702L164.636 99.589C165.68 89.0801 166.538 79.5374 166.538 78.4824C166.538 77.7791 166.703 77.0996 166.909 76.9733C167.112 76.8504 168.115 76.8504 169.142 76.9801L171.003 77.2089V79.2335C171.003 81.6371 171.148 81.6849 173.923 80.2339C175.001 79.6705 176.189 79.2096 176.564 79.2096C177.206 79.2096 177.23 79.3633 177 81.8556C176.866 83.3101 176.691 84.6177 176.609 84.7577C176.526 84.8977 175.922 85.0138 175.266 85.0138C173.686 85.0138 172.075 85.7308 170.935 86.936C169.952 87.9773 169.702 89.5717 169.097 98.756ZM142.956 97.7317L142.737 101.061H140.92C139.92 101.061 139 100.897 138.876 100.695C138.752 100.497 138.842 96.8235 139.075 92.5319C139.312 88.2436 139.412 84.5017 139.302 84.2183C139.192 83.9349 138.746 83.6515 138.309 83.59C137.602 83.491 137.506 83.2691 137.413 81.5381L137.31 79.5954L138.443 79.4896L139.577 79.3803L139.673 75.8808L139.773 72.3812H141.631C142.651 72.3812 143.561 72.5041 143.654 72.6543C143.746 72.8012 143.695 74.3 143.54 75.9832C143.372 77.7825 143.386 79.196 143.568 79.4213C143.74 79.633 144.653 79.9061 145.594 80.0325C147.246 80.251 147.305 80.2953 147.301 81.3537C147.298 81.9581 147.202 83.0301 147.085 83.7335C146.872 85.0035 146.858 85.0138 145.237 85.0138C144.062 85.0138 143.54 85.1674 143.393 85.5532C143.276 85.8503 143.183 87.9637 143.18 90.2478C143.18 92.5319 143.08 95.9017 142.956 97.7317ZM117.444 32.0936L117.252 40.1169L108.494 40.3081V32.0936H117.444ZM159.326 32.4077V39.6048H165.875L165.776 36.1052L165.68 32.6057L162.503 32.5067L159.326 32.4077ZM216.769 84.4675C213.764 87.0657 213.475 87.1989 211.875 86.7584C211.133 86.5536 210.865 86.0346 209.917 82.9516C208.664 78.8716 208.578 78.1 209.306 77.4957C209.352 77.458 209.393 77.422 209.432 77.3887C209.56 77.2773 209.653 77.1971 209.745 77.1918C209.989 77.185 210.247 77.6835 211.164 79.4623C211.224 79.5756 211.285 79.6949 211.35 79.8203L211.351 79.8206C211.405 79.9257 211.462 80.035 211.521 80.1485C212.493 82.0229 213.18 82.9653 213.572 82.9653C213.898 82.9653 215.33 82.3541 216.752 81.6098C218.174 80.8655 219.438 80.3534 219.558 80.4729C220.193 81.1079 219.482 82.1254 216.769 84.4675ZM152.955 97.4927C153.59 98.1209 154.167 98.3292 155.283 98.3292C157.626 98.3292 158.154 97.7488 158.422 94.8877C158.577 93.242 158.522 92.286 158.261 91.9685C157.684 91.2788 154.524 91.371 153.614 92.1051C151.886 93.4947 151.567 96.1134 152.955 97.4927ZM182.856 93.2591C183.423 93.382 184.57 93.4605 185.411 93.4298C186.751 93.3854 187.022 93.2386 187.592 92.2656C188.492 90.7257 188.547 88.0353 187.695 87.0999C186.655 85.9561 185.023 86.1405 183.79 87.5369C182.636 88.8445 181.523 91.4461 181.709 92.3987C181.781 92.7777 182.245 93.1225 182.856 93.2591ZM219.541 113.007C219.953 113.174 220.911 113.318 221.674 113.331C223.048 113.352 223.061 113.338 223.992 111.218C224.507 110.043 224.926 108.818 224.926 108.493C224.926 107.694 223.532 106.844 221.859 106.619C220.623 106.455 220.355 106.561 219.27 107.64C218.322 108.582 218.057 109.118 218.057 110.098C218.057 111.638 218.555 112.614 219.541 113.007ZM188.193 76.905C187.348 77.7961 186.562 78.5268 186.442 78.5268C186.03 78.5268 185.772 78.0625 185.796 77.3591C185.817 76.6456 189.79 71.333 190.467 71.1111C190.666 71.0428 191.027 71.4628 191.267 72.0432C191.277 72.0655 191.286 72.0873 191.295 72.1087L191.314 72.154C191.419 72.4013 191.499 72.5897 191.508 72.7807C191.545 73.3727 190.949 74.0021 188.537 76.5446L188.513 76.5704C188.417 76.6691 188.318 76.7737 188.216 76.8815L188.214 76.8827L188.193 76.905Z" fill="#FFFBFB"/>
<path fill-rule="evenodd" clip-rule="evenodd" d="M183.368 132.635C183.368 133.379 183.217 133.496 182.252 133.485C180.163 133.465 179.178 132.034 179.178 129.02C179.178 126.551 180.05 124.841 181.389 124.683C182.726 124.526 183.433 125.786 183.303 128.087L183.196 129.911L181.908 130.016C180.5 130.133 180.249 130.689 181.183 131.618C181.544 131.976 182.042 132.106 182.557 131.976C183.248 131.805 183.368 131.901 183.368 132.635ZM181.393 128.996C180.771 129.084 180.62 128.941 180.62 128.268C180.62 127.248 181.513 126.394 182.039 126.916C182.657 127.531 182.241 128.876 181.393 128.996Z" fill="#FFFBFB"/>
<path fill-rule="evenodd" clip-rule="evenodd" d="M178.267 131.444C178.085 133.83 177.938 134.363 177.443 134.455C177.11 134.52 176.746 134.329 176.633 134.032C176.519 133.738 176.09 133.496 175.681 133.496C173.696 133.496 172.37 130.931 173.054 128.415C173.476 126.858 174.033 126.322 175.558 126.015C176.622 125.796 176.674 125.715 176.773 124.007C176.87 122.375 176.949 122.229 177.718 122.229C178.552 122.229 178.559 122.256 178.525 125.387C178.508 127.125 178.391 129.849 178.267 131.444ZM175.812 131.788C175.698 131.788 175.42 131.604 175.193 131.379C174.575 130.764 174.695 129.579 175.448 128.907C176.317 128.125 176.842 128.487 176.842 129.863C176.842 130.863 176.347 131.788 175.812 131.788Z" fill="#FFFBFB"/>
<path fill-rule="evenodd" clip-rule="evenodd" d="M172.233 132.99C172.02 133.844 171.227 134.131 170.832 133.496C170.715 133.308 170.042 133.154 169.334 133.154C167.723 133.154 167.225 132.669 167.225 131.089C167.225 129.59 167.936 128.862 169.732 128.531C170.811 128.333 171.02 128.166 170.935 127.565C170.832 126.845 169.286 126.264 169.286 126.944C169.286 127.125 168.977 127.35 168.599 127.449C167.703 127.681 167.665 126.653 168.541 125.865C169.31 125.172 170.646 125.138 171.539 125.786C172.089 126.186 172.226 126.78 172.326 129.207C172.394 130.822 172.353 132.526 172.233 132.99ZM170.941 131.02C170.814 132.103 169.43 132.563 169.076 131.642C168.736 130.761 169.207 130.081 170.158 130.081C170.928 130.081 171.034 130.208 170.941 131.02Z" fill="#FFFBFB"/>
<path d="M170.79 123.437C170.22 124.304 169.629 124.55 169.629 123.919C169.629 123.311 170.656 121.546 171.014 121.546C171.522 121.546 171.412 122.495 170.79 123.437Z" fill="#FFFBFB"/>
<path d="M166.538 129.928C166.538 132.83 166.476 133.154 165.91 133.154C164.931 133.154 164.821 132.867 164.814 130.279C164.811 127.596 164.536 126.882 163.578 127.063C163.018 127.169 162.918 127.562 162.832 130.023C162.736 132.727 162.698 132.85 161.974 132.748C161.249 132.645 161.211 132.468 161.119 128.794C161.036 125.578 161.108 124.916 161.551 124.745C161.843 124.632 162.303 124.724 162.571 124.946C162.935 125.247 163.241 125.254 163.78 124.963C165.683 123.953 166.538 125.496 166.538 129.928Z" fill="#FFFBFB"/>
<path d="M158.467 130.593C158.467 132.761 158.402 132.994 157.742 133.086C157.055 133.185 157.011 133 156.777 129.074C156.647 126.814 156.633 124.806 156.75 124.619C157.145 123.984 158.295 124.236 158.295 124.96C158.295 125.68 158.793 125.878 159.154 125.301C159.271 125.114 159.666 124.96 160.033 124.96C161.064 124.96 160.936 126.595 159.875 126.995C158.659 127.456 158.467 127.951 158.467 130.593Z" fill="#FFFBFB"/>
<path fill-rule="evenodd" clip-rule="evenodd" d="M155.342 132.017C154.335 133.366 153.353 133.414 152.11 132.181C151.227 131.3 151.083 130.904 151.083 129.34C151.083 125.602 153.253 123.751 155.208 125.817C156.362 127.039 156.437 130.552 155.342 132.017ZM153.487 131.106C153.374 131.106 153.095 130.921 152.869 130.696C151.862 129.696 152.783 127.35 153.999 127.814C154.947 128.176 154.493 131.106 153.487 131.106Z" fill="#FFFBFB"/>
<path d="M146.343 131.02C146.243 132.755 146.206 132.813 145.227 132.813H144.213V122.229H146.274V127.009H148.678V122.229H150.756L150.664 127.435L150.567 132.642L149.64 132.748C148.751 132.85 148.713 132.789 148.61 131.041C148.51 129.276 148.479 129.228 147.476 129.228C146.477 129.228 146.443 129.279 146.343 131.02Z" fill="#FFFBFB"/>
<path d="M139.577 130.419C139.577 133.072 139.481 133.676 139.044 133.758C138.151 133.929 138.031 133.502 138.031 130.17C138.031 127.036 138.048 126.964 138.804 127.07C139.542 127.176 139.577 127.319 139.577 130.419Z" fill="#FFFBFB"/>
<path d="M139.68 125.233C139.13 125.779 138.55 125.749 138.045 125.148C137.135 124.059 138.478 122.345 139.549 123.229C140.195 123.762 140.253 124.663 139.68 125.233Z" fill="#FFFBFB"/>
<path d="M135.369 130.935C135.448 132.789 135.387 132.994 134.734 133.086C134.085 133.178 133.989 132.97 133.79 131.071C133.666 129.911 133.566 127.903 133.566 126.616C133.566 124.349 133.594 124.277 134.425 124.277C135.053 124.277 135.284 124.458 135.284 124.96C135.284 125.68 135.782 125.878 136.142 125.301C136.565 124.619 137.344 124.957 137.344 125.82C137.344 126.411 137.07 126.807 136.479 127.073C135.445 127.541 135.253 128.214 135.369 130.935Z" fill="#FFFBFB"/>
<path fill-rule="evenodd" clip-rule="evenodd" d="M129.376 134.247C129.283 136.145 129.187 136.411 128.538 136.503C127.82 136.602 127.796 136.469 127.552 130.966C127.415 127.862 127.398 125.073 127.518 124.762C127.673 124.363 127.958 124.267 128.504 124.431C128.926 124.561 129.799 124.796 130.437 124.957C131.955 125.339 132.519 125.936 132.89 127.558C133.491 130.167 131.942 132.871 130.166 132.311C129.534 132.113 129.469 132.27 129.376 134.247ZM130.472 130.426C129.881 130.74 129.73 130.658 129.428 129.863C128.727 128.036 129.486 126.759 130.606 127.872C131.378 128.637 131.306 129.979 130.472 130.426Z" fill="#FFFBFB"/>
<path fill-rule="evenodd" clip-rule="evenodd" d="M123.091 132.642C123.091 133.154 122.833 133.345 122.06 133.407C121.494 133.455 120.759 133.332 120.429 133.137C118.777 132.157 118.303 128.637 119.474 126.07C120.137 124.625 120.735 124.332 122.029 124.823C122.744 125.097 123.372 127.51 123.105 128.941C122.902 130.006 122.799 130.081 121.528 130.081C120.027 130.081 119.917 130.252 120.711 131.379C121.085 131.911 121.538 132.12 122.17 132.055C122.895 131.98 123.091 132.106 123.091 132.642ZM122.074 128.695C121.714 129.276 120.171 129.136 120.171 128.521C120.171 127.685 120.834 126.667 121.38 126.667C121.926 126.667 122.428 128.128 122.074 128.695Z" fill="#FFFBFB"/>
<path d="M121.641 122.946C121.051 123.943 120.515 124.243 120.515 123.577C120.515 122.97 121.542 121.204 121.899 121.204C122.397 121.204 122.304 121.833 121.641 122.946Z" fill="#FFFBFB"/>
<path d="M118.111 129.569C118.111 132.925 118.066 133.154 117.424 133.154H117.345L117.316 133.154C117.122 133.154 116.983 133.154 116.881 133.089C116.626 132.93 116.62 132.375 116.599 130.482L116.596 130.184C116.562 127.48 116.112 126.589 115.095 127.224C114.635 127.51 114.48 128.18 114.405 130.225C114.309 132.717 114.264 132.85 113.546 132.748C112.814 132.645 112.787 132.505 112.787 128.716C112.787 124.98 112.821 124.796 113.474 124.899C114.542 125.073 115.129 125.045 115.933 124.789C116.452 124.625 116.888 124.769 117.393 125.271C118.032 125.906 118.111 126.387 118.111 129.569Z" fill="#FFFBFB"/>
<path fill-rule="evenodd" clip-rule="evenodd" d="M106.361 130.713C106.282 132.741 106.145 133.338 105.729 133.417C104.857 133.584 104.716 133.168 104.716 130.385C104.716 128.927 104.561 127.637 104.372 127.521C103.936 127.254 103.919 125.984 104.352 125.984C104.53 125.984 104.723 125.407 104.781 124.704C104.867 123.687 105.028 123.424 105.574 123.424C106.12 123.424 106.282 123.687 106.368 124.704C106.426 125.407 106.643 125.984 106.845 125.984C107.048 125.984 107.398 126.234 107.625 126.537C107.982 127.026 108.085 126.964 108.47 126.039C109.243 124.185 111.248 124.192 111.901 126.049C112.313 127.227 112.382 128.716 112.062 129.542C111.921 129.907 111.42 130.081 110.517 130.081C109.033 130.081 108.93 130.255 109.73 131.392C110.115 131.935 110.551 132.137 111.19 132.065C111.904 131.983 112.1 132.106 112.1 132.639C112.1 133.024 111.829 133.366 111.472 133.434C109.425 133.827 107.81 132.027 107.807 129.344C107.807 127.934 107.731 127.777 107.134 127.93C106.55 128.081 106.447 128.456 106.361 130.713ZM110.125 128.996C109.394 129.078 109.181 128.958 109.181 128.463C109.181 127.459 110.026 126.524 110.699 126.78C111.101 126.933 111.252 127.302 111.18 127.944C111.094 128.685 110.867 128.91 110.125 128.996Z" fill="#FFFBFB"/>
<path d="M102.985 132.748C102.164 133.625 100.721 133.717 99.6394 132.963C98.7464 132.342 98.6674 131.703 99.4059 131.092C99.8077 130.764 100.034 130.754 100.333 131.051C100.9 131.614 101.968 131.543 101.968 130.938C101.968 130.658 101.353 130.044 100.601 129.573C98.4476 128.221 98.2999 125.53 100.343 124.813C102.198 124.165 104.053 125.575 103.002 126.834C102.689 127.21 102.421 127.23 101.762 126.93C101.116 126.64 100.821 126.65 100.498 126.985C100.165 127.329 100.22 127.5 100.759 127.811C102.167 128.627 103.685 130.372 103.685 131.177C103.685 131.631 103.369 132.338 102.985 132.748Z" fill="#FFFBFB"/>
<path d="M96.2014 130.593C96.2941 132.799 96.246 132.99 95.5797 133.086C94.9306 133.178 94.8344 132.97 94.6352 131.071C94.5116 129.911 94.412 127.903 94.412 126.616C94.412 124.349 94.4394 124.277 95.2706 124.277C95.906 124.277 96.1293 124.458 96.1293 124.974C96.1293 125.554 96.2392 125.609 96.7921 125.315C97.8294 124.762 98.19 124.888 98.19 125.8C98.19 126.326 97.8981 126.797 97.4172 127.046C96.2186 127.674 96.0983 128.033 96.2014 130.593Z" fill="#FFFBFB"/>
<path d="M90.2149 129.313L90.1187 125.131L89.1742 125.021C88.3843 124.933 88.2297 124.752 88.2297 123.912V122.911H94.0685V123.912C94.0685 124.752 93.9139 124.933 93.124 125.021L92.1795 125.131L92.0833 129.313L92.0833 129.314C91.9871 133.492 91.9871 133.496 91.1491 133.496C90.3111 133.496 90.3111 133.492 90.2149 129.314L90.2149 129.313Z" fill="#FFFBFB"/>
</svg>
